<?xml version="1.0" encoding="UTF-8"?><svg id="Layer_1" xmlns="http://www.w3.org/2000/svg" viewBox="0 0 193 208"><defs><style>.cls-1{fill:none;stroke:#f22c40;stroke-linecap:round;stroke-linejoin:round;stroke-width:13px;}</style></defs><path class="cls-1" d="M6.5,21.5h90v45M96.5,96.5h0v105M66.5,66.5h0v-15H21.5M81.5,66.5h0v-30h-45M21.5,36.5H6.5M51.5,81.5h90M51.5,66.5H6.5v15M21.5,81.5h0v15H6.5v15h30v-15h45v15M36.5,81.5h-15,15M66.5,111.5h0v15h15v45h-15v30h-15M51.5,111.5h0v30h15v15h-15v30M81.5,186.5h0v15M36.5,126.5h0v15H6.5v30h15v15H6.5v15h30v-45h-15M21.5,126.5H6.5M36.5,6.5h120M186.5,21.5h-90v45M96.5,96.5h0v105M126.5,66.5h0v-15h45M111.5,66.5h0v-30h45M171.5,36.5h15M141.5,81.5H51.5M141.5,66.5h45v15M171.5,81.5h0v15h15v15h-30v-15h-45v15M156.5,81.5h15-15M126.5,111.5h0v15h-15v45h15v30h15M141.5,111.5h0v30h-15v15h15v30M111.5,186.5h0v15M156.5,126.5h0v15h30v30h-15v15h15v15h-30v-45h15M171.5,126.5h15M156.5,6.5H36.5"/></svg>