<?xml version="1.0" encoding="UTF-8"?><svg id="Layer_1" xmlns="http://www.w3.org/2000/svg" viewBox="0 0 696.5 426.5"><defs><style>.cls-1{fill:none;stroke:#0a0a0a;stroke-linecap:round;stroke-linejoin:round;stroke-width:13px;}</style></defs><path class="cls-1" d="M510,240h90v45M600,315h0v105M570,285h0v-15h-45M585,285h0v-30h-45M525,255h-15M555,300h90M555,285h-45v15M525,300h0v15h-15v15h30v-15h45v15M540,300h-15,15M570,330h0v15h15v45h-15v30h-15M555,330h0v30h15v15h-15v30M585,405h0v15M540,345h0v15h-30v30h15v15h-15v15h30v-45h-15M525,345h-15M540,225h120M690,240h-90v45M600,315h0v105M630,285h0v-15h45M615,285h0v-30h45M675,255h15M645,300h-90M645,285h45v15M675,300h0v15h15v15h-30v-15h-45v15M660,300h15-15M630,330h0v15h-15v45h15v30h15M645,330h0v30h-15v15h15v30M615,405h0v15M660,345h0v15h30v30h-15v15h15v15h-30v-45h15M675,345h15M660,225h-120"/></svg>